# xmcd
# 
# Track frame offsets:
#     182
#     12001
#     23860
#     37625
#     50272
#     63449
#     77132
#     88495
#     101584
#     113282
#     125499
#     137132
#     149942
#     169576
#     181283
#     191861
#     203880
# 
# Disc length: 2893
# 
# Revision: 1
# Processed by: cddbd v1.5.2PL0 Copyright (c) Steve Scherf et al.
# Submitted via: fre:ac v1.0.31
# 
DISCID=e90b4b11
DTITLE=Country - The Only Classic Country Collection You'll Ever Need Disc 1
DYEAR=2010
DGENRE=Country
TTITLE0=Ernest Tubbs - Walking The Floor Over You
TTITLE1=Bob Wills And His Texas Playboys - New San Antonio Rose
TTITLE2=Bill Monroe - Blue Moon Of Kentucky
TTITLE3=Hank Snow The Signing Ranger And His Rainbow Ranch Boys - I'm Moving On
TTITLE4=Lefty Frizzell - If You've Got The Money I've Got The Time
TTITLE5=Patti Page - The Tennessee Waltz
TTITLE6=Kitty Wells - It Wasn't God Who Made Honky Tonk Angels
TTITLE7=Hank Williams With His Drifting Cowboys - Jambalaya (On The Bayou)
TTITLE8=Tennessee Ernie Ford - Sixteen Tons
TTITLE9=Johnny Cash - I Walk The Line
TTITLE10=Patsy Cline - Walkin' After Midnight
TTITLE11=Jim Reeves - Four Walls
TTITLE12=Marty Robbins - El Paso
TTITLE13=George Jones - She Thinks I Still Care
TTITLE14=Buck Ownes - Act Naturally
TTITLE15=Eddy Arnold - Make The World Go Away
TTITLE16=Ray Charles - Crying Time
EXTD=YEAR: 2010
EXTT0=
EXTT1=
EXTT2=
EXTT3=
EXTT4=
EXTT5=
EXTT6=
EXTT7=
EXTT8=
EXTT9=
EXTT10=
EXTT11=
EXTT12=
EXTT13=
EXTT14=
EXTT15=
EXTT16=
PLAYORDER=
